<svg xmlns="http://www.w3.org/2000/svg" data-name="Layer 1" viewBox="0 0 100 125" x="0px" y="0px"><title>Graphs</title><path d="M21.54,74.76a1,1,0,0,1-1-1V32.51a1,1,0,1,1,2,0V73.76A1,1,0,0,1,21.54,74.76Z"/><path d="M71.29,74.76H21.54a1,1,0,0,1,0-2H71.29a1,1,0,0,1,0,2Z"/><path d="M25.35,67.71a1,1,0,0,1-.3,0,1,1,0,0,1-.66-1.25l5.24-16.92a1,1,0,0,1,1.85-.14l2.43,4.95,4.85-14.36a1,1,0,0,1,1.74-.28L49,50.82V38.73a1,1,0,0,1,2-.28l6.33,22L61.63,43a1,1,0,0,1,.75-.74,1,1,0,0,1,1,.35l3.32,4.09L71.35,33a1,1,0,0,1,1.89.65L68,49a1,1,0,0,1-1.72.31l-3.2-3.94L58.33,64.55a1,1,0,0,1-.95.76,1,1,0,0,1-1-.72L51,45.82v8a1,1,0,0,1-1.8.6l-9.15-12L35,57.24a1,1,0,0,1-1.85.12L30.8,52.49,26.3,67A1,1,0,0,1,25.35,67.71Z"/><text x="0" y="115" fill="#000000" font-size="5px" font-weight="bold" font-family="'Helvetica Neue', Helvetica, Arial-Unicode, Arial, Sans-serif">Created by Lavish Motani</text><text x="0" y="120" fill="#000000" font-size="5px" font-weight="bold" font-family="'Helvetica Neue', Helvetica, Arial-Unicode, Arial, Sans-serif">from the Noun Project</text></svg>